<svg width="26" height="18" fill="none" xmlns="http://www.w3.org/2000/svg"><path d="M24.799 12.069V9.38a1.839 1.839 0 00-1.845-1.842l-1.273-.2-2.184-3.283c-.03-.026-.056-.088-.087-.113a1.882 1.882 0 00-1.505-.765h-4.14V2.034c0-.58-.431-1.051-.966-1.051H1.632c-.534 0-.965.472-.965 1.051V14.45c0 .595.483 1.047 1.048 1.047H3.22a2.803 2.803 0 002.722 2.036 2.839 2.839 0 002.722-2.036h9.272a2.803 2.803 0 002.722 2.036 2.839 2.839 0 002.723-2.036h1.305c.595 0 1.047-.483 1.047-1.047v-1.33a1.07 1.07 0 00-.934-1.051zM5.942 16.116A1.42 1.42 0 014.524 14.7a1.44 1.44 0 011.418-1.415A1.42 1.42 0 017.36 14.7a1.42 1.42 0 01-1.418 1.416zm9.765-8.67a.133.133 0 01-.134-.133v-2.6c0-.073.057-.134.134-.134h2.25c.046 0 .087.02.107.056l1.752 2.601c.056.087-.005.205-.108.205h-4.001v.006zm4.951 8.67a1.42 1.42 0 01-1.417-1.416 1.44 1.44 0 011.417-1.415 1.42 1.42 0 011.418 1.415 1.44 1.44 0 01-1.418 1.416z" fill="#000"/></svg>